<svg width="39" height="61" viewBox="0 0 39 61" fill="none" xmlns="http://www.w3.org/2000/svg">
<mask id="path-1-outside-1_1_88" maskUnits="userSpaceOnUse" x="-0.853226" y="0" width="40" height="61" fill="black">
<rect fill="white" x="-0.853226" width="40" height="61"/>
<path d="M24.0481 21.9814C24.4321 21.1789 25.3737 20.8781 26.1517 21.3096L32.0618 24.5879C35.7369 26.6271 37.2459 31.3536 35.4329 35.1455L24.6644 57.6631C24.2804 58.4653 23.3397 58.7661 22.5618 58.335L16.6517 55.0566C12.9761 53.0174 11.4662 48.2901 13.2796 44.498L24.0481 21.9814ZM21.5491 6.05957C25.2247 8.09874 26.7337 12.8261 24.9202 16.6182L13.4573 40.5889L6.13994 36.5293C2.46415 34.4902 0.954417 29.7629 2.76787 25.9707L14.2308 2L21.5491 6.05957Z"/>
</mask>
<path d="M24.0481 21.9814C24.4321 21.1789 25.3737 20.8781 26.1517 21.3096L32.0618 24.5879C35.7369 26.6271 37.2459 31.3536 35.4329 35.1455L24.6644 57.6631C24.2804 58.4653 23.3397 58.7661 22.5618 58.335L16.6517 55.0566C12.9761 53.0174 11.4662 48.2901 13.2796 44.498L24.0481 21.9814ZM21.5491 6.05957C25.2247 8.09874 26.7337 12.8261 24.9202 16.6182L13.4573 40.5889L6.13994 36.5293C2.46415 34.4902 0.954417 29.7629 2.76787 25.9707L14.2308 2L21.5491 6.05957Z" fill="#0A7C6E"/>
<path d="M24.0481 21.9814L22.244 21.1183L22.2439 21.1186L24.0481 21.9814ZM26.1517 21.3096L27.1218 19.5606L27.1217 19.5606L26.1517 21.3096ZM32.0618 24.5879L33.0322 22.8391L33.0319 22.8389L32.0618 24.5879ZM35.4329 35.1455L37.2372 36.0084L37.2373 36.0082L35.4329 35.1455ZM24.6644 57.6631L26.4684 58.5265L26.4686 58.526L24.6644 57.6631ZM22.5618 58.335L21.5917 60.0839L21.5922 60.0842L22.5618 58.335ZM16.6517 55.0566L15.6814 56.8055L15.6815 56.8056L16.6517 55.0566ZM13.2796 44.498L11.4753 43.6352L11.4753 43.6352L13.2796 44.498ZM21.5491 6.05957L22.5194 4.31068L22.5193 4.31063L21.5491 6.05957ZM24.9202 16.6182L23.1159 15.7553L23.1159 15.7553L24.9202 16.6182ZM13.4573 40.5889L12.4871 42.3378C12.9692 42.6053 13.5405 42.6618 14.0658 42.4941C14.591 42.3263 15.0237 41.9492 15.2616 41.4517L13.4573 40.5889ZM6.13994 36.5293L7.11019 34.7804L7.11013 34.7804L6.13994 36.5293ZM2.76787 25.9707L4.57217 26.8335L4.57218 26.8335L2.76787 25.9707ZM14.2308 2L15.2009 0.251058C14.7187 -0.0164101 14.1475 -0.0729463 13.6223 0.0948102C13.097 0.262567 12.6643 0.639731 12.4265 1.13717L14.2308 2ZM24.0481 21.9814L25.8523 22.8445C25.8051 22.9432 25.7024 23.0426 25.5607 23.0879C25.419 23.1332 25.2774 23.1117 25.1816 23.0586L26.1517 21.3096L27.1217 19.5606C25.3361 18.5702 23.1248 19.277 22.244 21.1183L24.0481 21.9814ZM26.1517 21.3096L25.1815 23.0585L31.0917 26.3368L32.0618 24.5879L33.0319 22.8389L27.1218 19.5606L26.1517 21.3096ZM32.0618 24.5879L31.0914 26.3367C33.8417 27.8627 34.9855 31.4449 33.6285 34.2828L35.4329 35.1455L37.2373 36.0082C39.5064 31.2624 37.6322 25.3915 33.0322 22.8391L32.0618 24.5879ZM35.4329 35.1455L33.6286 34.2826L22.8601 56.8002L24.6644 57.6631L26.4686 58.526L37.2372 36.0084L35.4329 35.1455ZM24.6644 57.6631L22.8603 56.7997C22.9074 56.7014 23.0099 56.6019 23.1519 56.5565C23.2939 56.5111 23.4357 56.5326 23.5314 56.5857L22.5618 58.335L21.5922 60.0842C23.378 61.0741 25.5877 60.3666 26.4684 58.5265L24.6644 57.6631ZM22.5618 58.335L23.5319 56.586L17.6218 53.3077L16.6517 55.0566L15.6815 56.8056L21.5917 60.0839L22.5618 58.335ZM16.6517 55.0566L17.6219 53.3078C14.8711 51.7816 13.7268 48.1987 15.0839 45.3609L13.2796 44.498L11.4753 43.6352C9.20552 48.3815 11.0811 54.2533 15.6814 56.8055L16.6517 55.0566ZM13.2796 44.498L15.0839 45.3609L25.8524 22.8443L24.0481 21.9814L22.2439 21.1186L11.4753 43.6352L13.2796 44.498ZM21.5491 6.05957L20.5789 7.80846C23.3293 9.33437 24.4732 12.9171 23.1159 15.7553L24.9202 16.6182L26.7245 17.481C28.9941 12.735 27.1201 6.8631 22.5194 4.31068L21.5491 6.05957ZM24.9202 16.6182L23.1159 15.7553L11.653 39.726L13.4573 40.5889L15.2616 41.4517L26.7245 17.481L24.9202 16.6182ZM13.4573 40.5889L14.4276 38.84L7.11019 34.7804L6.13994 36.5293L5.16968 38.2782L12.4871 42.3378L13.4573 40.5889ZM6.13994 36.5293L7.11013 34.7804C4.35925 33.2544 3.21502 29.6715 4.57217 26.8335L2.76787 25.9707L0.963562 25.1079C-1.30618 29.8542 0.569048 35.7261 5.16975 38.2782L6.13994 36.5293ZM2.76787 25.9707L4.57218 26.8335L16.0351 2.86283L14.2308 2L12.4265 1.13717L0.96356 25.1079L2.76787 25.9707ZM14.2308 2L13.2606 3.74894L20.579 7.80851L21.5491 6.05957L22.5193 4.31063L15.2009 0.251058L14.2308 2Z" fill="#F7F7F7" mask="url(#path-1-outside-1_1_88)"/>
</svg>
